<?xml version="1.0" encoding="UTF-8" standalone="no"?>
<svg
   xmlns:dc="http://purl.org/dc/elements/1.1/"
   xmlns:cc="http://creativecommons.org/ns#"
   xmlns:rdf="http://www.w3.org/1999/02/22-rdf-syntax-ns#"
   xmlns:svg="http://www.w3.org/2000/svg"
   xmlns="http://www.w3.org/2000/svg"
   xmlns:sodipodi="http://sodipodi.sourceforge.net/DTD/sodipodi-0.dtd"
   xmlns:inkscape="http://www.inkscape.org/namespaces/inkscape"
   width="1512"
   height="1511.811"
   viewBox="0 0 400.05 400"
   version="1.1"
   id="svg843"
   inkscape:version="1.0.2 (e86c870879, 2021-01-15)"
   sodipodi:docname="icon.svg"
   inkscape:export-filename="/home/fred/Workspace/ctrlcctrlv.github.io/images/icon.png"
   inkscape:export-xdpi="4.0599999"
   inkscape:export-ydpi="4.0599999">
  <defs
     id="defs837" />
  <sodipodi:namedview
     id="base"
     pagecolor="#000000"
     bordercolor="#666666"
     borderopacity="1.0"
     inkscape:pageopacity="1"
     inkscape:pageshadow="2"
     inkscape:zoom="0.35355339"
     inkscape:cx="251.11991"
     inkscape:cy="560"
     inkscape:document-units="mm"
     inkscape:current-layer="text1408"
     inkscape:document-rotation="0"
     showgrid="false"
     inkscape:window-width="2440"
     inkscape:window-height="1272"
     inkscape:window-x="1399"
     inkscape:window-y="0"
     inkscape:window-maximized="0"
     units="px" />
  <metadata
     id="metadata840">
    <rdf:RDF>
      <cc:Work
         rdf:about="">
        <dc:format>image/svg+xml</dc:format>
        <dc:type
           rdf:resource="http://purl.org/dc/dcmitype/StillImage" />
        <dc:title></dc:title>
      </cc:Work>
    </rdf:RDF>
  </metadata>
  <g
     inkscape:label="Layer 1"
     inkscape:groupmode="layer"
     id="layer1">
    <g
       aria-label="FRB"
       id="text1408"
       style="font-style:normal;font-weight:normal;font-size:209.749px;line-height:1.25;font-family:sans-serif;fill:#e6e6e6;fill-opacity:1;stroke:none;stroke-width:5.24374">
      <path
         d="m 19.484943,152.81737 c 9.228956,0 23.07239,-1.04874 31.462349,-1.04874 8.180211,0 26.428373,0.839 35.237831,0.839 2.09749,0 3.355984,-1.04875 3.355984,-3.14624 0,-2.72674 -1.468243,-3.77548 -3.985231,-4.40473 -11.955692,-2.51699 -16.360421,-4.61448 -16.360421,-13.42393 0,-12.58494 -0.419498,-26.84788 -0.419498,-39.432805 0,-2.93649 1.468243,-4.82423 4.614478,-4.82423 3.98523,0 8.18021,0 12.165441,0 h 9.648455 c 5.243719,0 8.180209,2.51699 10.697199,11.1167 0.83899,2.936475 2.93648,5.033965 5.03397,5.033965 1.46825,0 2.51699,-1.67799 2.09749,-5.872965 -0.62924,-6.29247 -0.83899,-8.80946 -0.83899,-14.47268 0,-4.19498 0.4195,-9.8582 1.04874,-15.94092 0.20975,-3.14624 -1.25849,-4.82423 -2.51699,-4.82423 -1.67799,0 -3.35598,1.25849 -4.40472,3.77548 -2.51699,6.29247 -4.82423,11.32645 -12.165445,11.32645 H 74.648929 c -3.355984,0 -5.453474,-1.2585 -5.453474,-5.03398 0,-6.29247 0,-14.05318 0,-20.34565 v -16.98967 c 0,-6.08272 5.033976,-9.64845 11.955692,-9.64845 h 13.214187 c 7.341216,0 11.955696,1.88774 15.521426,5.45347 3.77548,3.98523 5.87297,10.06795 7.97046,17.40917 0.62925,2.51698 2.93649,3.56573 4.40473,3.56573 1.46824,0 2.72674,-1.46824 2.72674,-4.19498 0,-7.55097 -0.4195,-19.08716 -1.04875,-29.78436 -0.20975,-3.35598 -3.35598,-4.40473 -5.45347,-4.40473 -6.29247,0 -16.57017,2.30724 -28.525865,2.30724 H 50.947292 c -8.389959,0 -20.974899,-1.04874 -30.203855,-1.04874 -2.516988,0 -4.19498,1.46824 -4.19498,3.35598 0,1.67799 1.048745,3.56573 4.404729,4.40473 9.858203,2.30724 12.58494,5.03398 12.58494,14.05318 v 95.226035 c 0,8.59971 -3.146235,10.90695 -13.843434,13.21419 -2.516988,0.62925 -3.98523,2.09749 -3.98523,4.61448 0,1.88774 2.097489,3.14623 3.775481,3.14623 z"
         style="font-style:normal;font-variant:normal;font-weight:800;font-stretch:normal;font-family:'EB Garamond';-inkscape-font-specification:'EB Garamond Ultra-Bold';fill:#e6e6e6;stroke-width:5.24374"
         id="path1410" />
      <path
         d="m 255.24677,264.38763 c 16.36042,0 26.84787,-3.98523 26.84787,-14.05319 0,-2.72673 -1.04875,-3.98523 -3.14624,-3.98523 -9.8582,0 -20.76515,-0.20975 -30.4136,-9.4387 -12.16544,-11.5362 -24.12114,-28.10637 -36.49633,-46.77403 -0.62924,-0.83899 -0.83899,-2.09749 0.20975,-2.51699 12.79469,-3.77548 27.47712,-13.00443 27.47712,-31.88184 0,-22.65289 -18.87741,-33.55984 -51.808,-33.55984 -15.73118,0 -20.1359,2.09749 -30.20386,2.09749 -10.90694,0 -16.36042,-1.67799 -29.9941,-1.67799 -2.51699,0 -4.19498,1.46824 -4.19498,3.35598 0,1.67799 1.04874,3.56573 4.40473,4.40473 9.8582,2.30724 12.58494,5.03398 12.58494,14.05318 v 95.22604 c 0,8.59971 -3.14624,10.90695 -13.84344,13.21419 -2.51698,0.62925 -3.98523,2.09749 -3.98523,4.61448 0,1.88774 2.09749,3.14623 3.77548,3.14623 9.22896,0 23.07239,-1.04874 31.46235,-1.04874 8.18021,0 26.42838,0.839 35.23783,0.839 2.09749,0 3.35599,-1.04875 3.35599,-3.14624 0,-2.72674 -1.46825,-3.77548 -3.98523,-4.40473 -11.9557,-2.51699 -16.36042,-4.61448 -16.36042,-13.42393 v -40.69131 c 0,-2.51699 0.62924,-4.19498 2.09749,-4.19498 1.46824,0 3.35598,0.4195 5.03397,1.46824 2.09749,1.2585 3.77548,3.56574 5.03398,6.29247 7.97046,17.19942 15.94092,29.15511 24.75038,41.11081 8.38996,11.32644 18.45791,20.9749 42.15955,20.9749 z m -71.73416,-76.97788 c -4.61448,0 -7.34121,-2.30724 -7.34121,-7.97047 v -28.10636 c 0,-16.15067 2.51698,-19.29691 8.18021,-19.29691 13.21418,0 21.18464,8.80946 21.18464,28.73561 0,15.94093 -7.13146,26.63813 -22.02364,26.63813 z"
         style="font-style:normal;font-variant:normal;font-weight:800;font-stretch:normal;font-family:'EB Garamond';-inkscape-font-specification:'EB Garamond Ultra-Bold';fill:#e6e6e6;stroke-width:5.24374"
         id="path1412" />
      <path
         d="m 270.27088,384.41938 c 8.18021,0 21.60415,-1.04874 30.20386,-1.04874 10.90695,0 20.1359,0.83899 30.8331,0.83899 16.15067,0 27.47712,-2.09749 36.70607,-6.50222 8.80946,-4.40472 22.2334,-11.32644 22.2334,-35.02808 0,-24.33088 -19.29691,-31.04285 -34.39884,-33.76959 -1.25849,-0.20974 -1.04874,-1.88774 0,-2.09749 5.87297,-1.25849 11.1167,-3.98523 15.52143,-7.76071 6.92172,-5.66322 11.32644,-13.84343 11.32644,-22.23339 0,-22.86264 -17.82866,-31.2526 -51.17875,-31.2526 -15.31168,0 -21.18465,2.09749 -31.2526,2.09749 -10.90695,0 -16.36042,-1.67799 -29.99411,-1.67799 -2.51698,0 -4.19498,1.46824 -4.19498,3.35598 0,1.67799 1.04875,3.56573 4.40473,4.40473 9.85821,2.30724 12.58494,5.03398 12.58494,14.05318 v 95.64554 c 0,8.59971 -3.35598,10.48745 -12.58494,13.21419 -2.72673,0.839 -4.19498,2.72674 -4.19498,4.40473 0,1.67799 1.46825,3.35598 3.98523,3.35598 z m 56.63223,-78.23637 c -3.35598,0 -8.18021,-2.30724 -8.18021,-7.34122 v -34.60858 c 0,-5.87297 3.56573,-8.80946 10.6972,-8.80946 13.00444,0 19.71641,7.55097 19.71641,26.21863 0,11.32644 -4.19498,16.98966 -6.08273,18.87741 -5.03397,4.40472 -9.64845,5.66322 -16.15067,5.66322 z m 3.77548,65.86118 c -7.55096,0 -11.95569,-4.61448 -11.95569,-13.00444 v -36.07682 c 0,-4.82423 5.66322,-6.71197 9.22896,-6.71197 7.55096,0 12.79469,2.72674 14.89218,4.61448 3.56573,2.93648 9.4387,9.4387 9.4387,23.49188 0,15.73118 -9.8582,27.68687 -21.60415,27.68687 z"
         style="font-style:normal;font-variant:normal;font-weight:800;font-stretch:normal;font-family:'EB Garamond';-inkscape-font-specification:'EB Garamond Ultra-Bold';fill:#e6e6e6;stroke-width:5.24374"
         id="path1414" />
    </g>
  </g>
</svg>
